<svg xmlns="http://www.w3.org/2000/svg" version="1.1" xmlns:xlink="http://www.w3.org/1999/xlink" xmlns:svgjs="http://svgjs.dev/svgjs" width="1000" height="1000" viewBox="0 0 1000 1000"><rect width="1000" height="1000" fill="#ffffff"></rect><g transform="matrix(0.7,0,0,0.7,149.57575757575756,282.1265587044535)"><svg viewBox="0 0 396 247" data-background-color="#ffffff" preserveAspectRatio="xMidYMid meet" height="623" width="1000" xmlns="http://www.w3.org/2000/svg" xmlns:xlink="http://www.w3.org/1999/xlink"><g id="tight-bounds" transform="matrix(1,0,0,1,0.2400000000000091,-0.09999999999999432)"><svg viewBox="0 0 395.52 247.2" height="247.2" width="395.52"><g><svg></svg></g><g><svg viewBox="0 0 395.52 247.2" height="247.2" width="395.52"><g transform="matrix(1,0,0,1,75.54432,80.35795307262569)"><svg viewBox="0 0 244.43135999999998 86.48409385474861" height="86.48409385474861" width="244.43135999999998"><g><svg viewBox="0 0 244.43135999999998 86.48409385474861" height="86.48409385474861" width="244.43135999999998"><g><svg viewBox="0 0 244.43135999999998 86.48409385474861" height="86.48409385474861" width="244.43135999999998"><g><svg viewBox="0 0 244.43135999999998 86.48409385474861" height="86.48409385474861" width="244.43135999999998"><g><svg viewBox="0 0 244.43135999999998 86.48409385474861" height="86.48409385474861" width="244.43135999999998"><g><svg viewBox="0 0 244.43135999999998 86.48409385474861" height="86.48409385474861" width="244.43135999999998"><g transform="matrix(1,0,0,1,0,0)"><svg width="244.43135999999998" viewBox="0.2800000011920929 -32.15999984741211 128.86000061035156 45.599998474121094" height="86.48409385474861" data-palette-color="#2141df"><path d="M1.76-19.12L1.76-19.12Q0.28-19.12 0.28-21.2 0.28-23.28 2.44-25.84L2.44-25.84Q6.04-30.16 12.44-30.84L12.44-30.84 14.64-30.96Q21.92-30.96 25.2-25.16L25.2-25.16Q27.16-21.6 27.16-16.96L27.16-16.96Q27.16-15.04 26.84-12.92L26.84-12.92Q25.68-5.8 21.32-0.84L21.32-0.84Q16.52 4.64 10.14 4.64 3.76 4.64 2.04 1.08L2.04 1.08Q1.52-0.04 1.52-1.3 1.52-2.56 2.2-3.96L2.2-3.96Q3.52-6.52 5.8-6.52L5.8-6.52Q6-6.52 6.06-6.3 6.12-6.08 6.02-5.84 5.92-5.6 5.72-5.6L5.72-5.6Q4.36-5.6 3.36-3.84L3.36-3.84Q2.72-2.6 2.72-1.56 2.72-0.52 3.12 0.36L3.12 0.36Q4.4 3.08 9.24 3.08L9.24 3.08Q14.72 3.08 19.16-2.52L19.16-2.52Q23.16-7.56 24.32-14.36L24.32-14.36Q24.72-16.56 24.72-18.52L24.72-18.52Q24.72-22.88 22.76-25.88L22.76-25.88Q20.16-29.92 14.6-29.92L14.6-29.92Q7.64-29.92 4.16-25.24L4.16-25.24Q2.4-22.84 2.4-20.76L2.4-20.76Q2.4-19.92 2.76-19.92L2.76-19.92Q2.52-19.12 1.76-19.12ZM7.52-3.96L7.52-3.96Q7.52-10.04 8.6-15.78 9.68-21.52 11.26-24.86 12.84-28.2 14.32-28.2L14.32-28.2Q14.96-28.2 14.96-27.56L14.96-27.56Q13.16-23.84 11.8-17.64L11.8-17.64Q9.28-6.32 9.28-1.28L9.28-1.28Q9.28-0.76 8.72-0.76L8.72-0.76Q7.52-0.76 7.52-3.96ZM42.72-11.48L42.72-11.48Q41.2-11.48 41.2-14.8L41.2-14.8Q41.2-16.68 41.92-18.32L41.92-18.32Q39.2-15.96 35.84-9.54 32.48-3.12 32.48-1.16L32.48-1.16Q32.48-0.68 31.84-0.68L31.84-0.68Q30.68-0.68 30.68-3.84L30.68-3.84Q30.68-9.8 31.88-14.64 33.08-19.48 34.8-19.48L34.8-19.48Q35.56-19.48 35.56-18.6L35.56-18.6Q33.72-12.76 32.92-6.64L32.92-6.64 33.2-6.64Q36.44-14.12 40.36-18.32L40.36-18.32Q42.6-20.72 44.44-20.72L44.44-20.72Q44.84-20.72 45.1-20.48 45.36-20.24 45.36-19.88L45.36-19.88Q45.08-19.6 44.68-19.04 44.28-18.48 43.6-16.38 42.92-14.28 42.92-11.8L42.92-11.8Q42.92-11.48 42.72-11.48ZM55.75-19.4L55.75-19.4Q58.8-19.4 58.8-15.84L58.8-15.84Q58.8-13.8 57.44-11.56L57.44-11.56Q55.11-7.84 51.27-7.84L51.27-7.84Q50.67-7.84 50.27-8.04 49.88-8.24 49.67-8.64L49.67-8.64Q52.52-8.64 54.88-11.92L54.88-11.92Q56.8-14.56 56.8-16.76L56.8-16.76Q56.8-18.4 55.47-18.4L55.47-18.4Q52.84-18.4 50.55-14.28L50.55-14.28Q48.11-9.8 48.11-5.08L48.11-5.08Q48.11-1.08 50.39-0.28L50.39-0.28Q50.84-0.12 51.52-0.12 52.2-0.12 52.95-0.46 53.71-0.8 54.23-1.28L54.23-1.28Q55.27-2.24 55.95-3.4L55.95-3.4Q56.11-3.72 56.55-3.72L56.55-3.72Q57.27-3.72 57.23-3.48L57.23-3.48Q57.11-3.04 56.33-2 55.55-0.96 54.89-0.34 54.23 0.28 53.17 0.78 52.11 1.28 51.03 1.28L51.03 1.28Q46.79 1.28 45.63-2.72L45.63-2.72Q45.27-4.08 45.27-5.52L45.27-5.52Q45.27-8.2 46.52-11.36L46.52-11.36Q48.47-16.16 51.91-18.28L51.91-18.28Q53.8-19.4 55.75-19.4ZM63.71-1.36L63.71-1.36Q63.71 1.44 65.51 1.44L65.51 1.44Q67.19 1.44 68.65-1.32 70.11-4.08 70.11-8.28L70.11-8.28Q70.11-10.32 69.37-14.04 68.63-17.76 68.63-18.9 68.63-20.04 68.71-20.4L68.71-20.4Q68.19-19.56 65.71-14.82 63.23-10.08 61.31-7.32L61.31-7.32Q61.15-7.16 60.87-7.22 60.59-7.28 60.41-7.46 60.23-7.64 60.23-7.72 60.23-7.8 60.27-7.84L60.27-7.84Q62.15-10.56 64.65-15.34 67.15-20.12 68.83-22.48 70.51-24.84 72.15-24.84L72.15-24.84Q72.99-24.84 72.99-24.12L72.99-24.12Q72.99-23.64 72.31-22.84L72.31-22.84Q70.15-20.4 70.15-17.84L70.15-17.84Q70.15-16.32 71.31-11.98 72.47-7.64 72.47-5.68L72.47-5.68Q72.47-2.16 70.51 0.3 68.55 2.76 66.07 2.76L66.07 2.76Q62.55 2.76 62.55-1.28L62.55-1.28Q62.55-4.32 64.41-7.64 66.27-10.96 68.15-12.12L68.15-12.12Q68.51-12.36 68.61-11.84 68.71-11.32 68.47-11.16L68.47-11.16Q66.35-9.96 64.79-6.04L64.79-6.04Q63.71-3.28 63.71-1.36ZM78.87-1.36L78.87-1.36Q78.87 1.44 80.67 1.44L80.67 1.44Q82.35 1.44 83.81-1.32 85.27-4.08 85.27-8.28L85.27-8.28Q85.27-10.32 84.53-14.04 83.79-17.76 83.79-18.9 83.79-20.04 83.87-20.4L83.87-20.4Q83.35-19.56 80.87-14.82 78.39-10.08 76.47-7.32L76.47-7.32Q76.31-7.16 76.03-7.22 75.75-7.28 75.57-7.46 75.39-7.64 75.39-7.72 75.39-7.8 75.43-7.84L75.43-7.84Q77.31-10.56 79.81-15.34 82.31-20.12 83.99-22.48 85.67-24.84 87.31-24.84L87.31-24.84Q88.15-24.84 88.15-24.12L88.15-24.12Q88.15-23.64 87.47-22.84L87.47-22.84Q85.31-20.4 85.31-17.84L85.31-17.84Q85.31-16.32 86.47-11.98 87.63-7.64 87.63-5.68L87.63-5.68Q87.63-2.16 85.67 0.3 83.71 2.76 81.23 2.76L81.23 2.76Q77.71 2.76 77.71-1.28L77.71-1.28Q77.71-4.32 79.57-7.64 81.43-10.96 83.31-12.12L83.31-12.12Q83.67-12.36 83.77-11.84 83.87-11.32 83.63-11.16L83.63-11.16Q81.51-9.96 79.95-6.04L79.95-6.04Q78.87-3.28 78.87-1.36ZM92.23-3.4L92.23-3.4Q92.23-9.32 93.45-13.96 94.67-18.6 96.55-18.6L96.55-18.6Q97.47-18.6 97.47-17.6L97.47-17.6Q97.07-16.56 96.47-14.84 95.87-13.12 94.89-8.62 93.91-4.12 93.91-0.6L93.91-0.6Q93.91-0.04 93.31-0.04L93.31-0.04Q92.23-0.04 92.23-3.4ZM98.07-23.04L97.59-22.36Q96.75-22.36 96.75-23.96L96.75-23.96Q96.75-24.92 97.27-25.98 97.79-27.04 98.75-27.04L98.75-27.04Q99.55-27.04 99.55-26.12L99.55-26.12Q99.55-25.2 98.07-23.04L98.07-23.04ZM98.22 12.52L98.22 12.52Q96.19 12.52 96.19 10.08L96.19 10.08Q96.19 8.36 97.27 5.36 98.34 2.36 99.42 0.16L99.42 0.16Q101.39-3.68 102.22-5.12L102.22-5.12Q103.14-13.72 103.86-17.44L103.86-17.44Q102.91-17.32 101.95-17.32 100.98-17.32 100.78-18.32L100.78-18.32Q100.78-19.12 101.27-19.24L101.27-19.24Q101.42-19 102.42-19 103.42-19 104.22-19.08L104.22-19.08Q106.83-31.04 113.11-31.04L113.11-31.04Q113.91-31.04 113.87-30.44L113.87-30.44Q113.83-30.04 113.59-30.04L113.59-30.04Q110.87-30.04 109.22-27.2 107.59-24.36 106.59-19.24L106.59-19.24Q111.34-19.6 112.39-19.6L112.39-19.6Q112.75-19.6 112.69-19.12 112.63-18.64 111.87-18.64 111.11-18.64 106.31-17.84L106.31-17.84Q105.78-14.88 105.2-9.24 104.63-3.6 104.27-0.64 103.91 2.32 103.42 4.56 102.95 6.8 102.27 8.68L102.27 8.68Q100.86 12.52 98.22 12.52ZM98.27 11.36L98.27 11.36Q99.5 11.36 100.14 9.28L100.14 9.28Q100.86 7 101.19 4.52L101.19 4.52Q101.67 0.8 102.03-3.12L102.03-3.12Q99.03 3.24 98.39 5.28L98.39 5.28Q97.31 8.72 97.31 10.04 97.31 11.36 98.27 11.36ZM114.31-24.6L114.31-24.6Q113.83-24.6 113.78-25.4L113.78-25.4Q113.78-27.92 114.64-30.04 115.5-32.16 116.78-32.16L116.78-32.16Q117.27-32.16 117.27-31.56L117.27-31.56Q116.98-31.12 116.75-30.76 116.5-30.4 116.25-29.92 115.98-29.44 115.7-28.84 115.42-28.24 115.19-27.64L115.19-27.64Q114.67-26.32 114.67-25.08L114.67-25.08Q114.67-24.6 114.31-24.6ZM113.38 12.52L113.38 12.52Q116.98 12.52 119.02 9.12L119.02 9.12Q120.78 6.12 121.74 1.64L121.74 1.64Q114.5 1.8 110.62 7.16L110.62 7.16Q110.38 7.52 109.86 7.28L109.86 7.28Q109.58 7.12 109.7 6.88L109.7 6.88Q111.42 4.28 114.5 2.46 117.58 0.64 121.98 0.48L121.98 0.48Q122.42-1.52 122.82-4.2 123.22-6.88 123.74-9.4L123.74-9.4 123.38-9.4Q118.18-0.16 115.46-0.16L115.46-0.16Q112.42-0.16 112.42-4.84 112.42-9.52 114.42-14.26 116.42-19 118.06-19.36L118.06-19.36 118.3-19.4Q118.98-19.4 118.98-18.52L118.98-18.52Q118.54-17.44 117.86-15.7 117.18-13.96 116.06-9.98 114.94-6 114.94-3.78 114.94-1.56 115.9-1.56L115.9-1.56Q117.02-1.56 119.5-5.44L119.5-5.44Q123.14-11.12 125.82-16.96L125.82-16.96Q126.98-19.4 128.3-19.4L128.3-19.4Q129.14-19.4 129.14-18.48L129.14-18.48Q128.38-17.08 127.3-13.24 126.22-9.4 125.54-5.5 124.86-1.6 124.38 0.6L124.38 0.6Q127.42 1.12 127.9 3.24L127.9 3.24Q127.98 3.6 127.98 4.22 127.98 4.84 127.5 5.3 127.02 5.76 126.66 5.76L126.66 5.76Q126.74 5.48 126.7 4.78 126.66 4.08 126.44 3.6 126.22 3.12 125.62 2.6 125.02 2.08 124.06 1.84L124.06 1.84Q120.98 13.44 113.38 13.44L113.38 13.44Q110.1 13.44 109.02 11.12L109.02 11.12Q108.98 11 108.98 10.92L108.98 10.92Q108.98 10.68 109.4 10.62 109.82 10.56 110.02 10.88L110.02 10.88Q110.74 12.52 113.38 12.52Z" opacity="1" transform="matrix(1,0,0,1,0,0)" fill="#000000" class="undefined-text-0" data-fill-palette-color="primary" id="text-0"></path></svg></g></svg></g></svg></g></svg></g></svg></g></svg></g></svg></g><g><path d="M0 123.6c0-68.262 55.338-123.6 123.6-123.6 49.117 0 91.542 28.65 111.477 70.15l-4.344 0c-19.635-39.278-60.234-66.25-107.133-66.25-66.109 0-119.7 53.592-119.7 119.7 0 66.109 53.592 119.7 119.7 119.7 46.899 0 87.499-26.972 107.133-66.25l4.344 0c-19.934 41.5-62.36 70.15-111.477 70.15-68.262 0-123.6-55.338-123.6-123.6z" fill="#8ba5ea" stroke="transparent" data-fill-palette-color="tertiary"></path></g></svg></g><defs></defs></svg><rect width="395.52" height="247.2" fill="none" stroke="none" visibility="hidden"></rect></g></svg></g></svg>